<?xml version="1.0" encoding="UTF-8"?> <!-- Generator: Adobe Illustrator 21.0.2, SVG Export Plug-In . SVG Version: 6.00 Build 0) --> <svg xmlns="http://www.w3.org/2000/svg" xmlns:xlink="http://www.w3.org/1999/xlink" id="Layer_1" x="0px" y="0px" viewBox="0 0 105.2 32.5" style="enable-background:new 0 0 105.2 32.5;" xml:space="preserve"> <style type="text/css"> .st0{clip-path:url(#SVGID_2_);} .st1{fill:url(#SVGID_3_);} .st2{clip-path:url(#SVGID_5_);} .st3{fill:url(#SVGID_6_);} .st4{clip-path:url(#SVGID_8_);} .st5{fill:url(#SVGID_9_);} .st6{clip-path:url(#SVGID_11_);} .st7{fill:url(#SVGID_12_);} .st8{clip-path:url(#SVGID_14_);} .st9{fill:#575756;} </style> <title>mitieLogo_horizontal_grey</title> <g> <defs> <path id="SVGID_1_" d="M9.7,26.2c6.9,6.7,18,6.5,24.7-0.4c6.5-6.8,6.5-17.5,0-24.2L9.7,26.2z"></path> </defs> <clipPath id="SVGID_2_"> <use xlink:href="#SVGID_1_" style="overflow:visible;"></use> </clipPath> <g class="st0"> <linearGradient id="SVGID_3_" gradientUnits="userSpaceOnUse" x1="-423.1027" y1="113.1877" x2="-422.1027" y2="113.1877" gradientTransform="matrix(24.6639 -24.6639 24.6639 24.6639 7656.2505 -13197.7178)"> <stop offset="0" style="stop-color:#E5342A"></stop> <stop offset="0.11" style="stop-color:#E94D2C"></stop> <stop offset="0.28" style="stop-color:#EE712E"></stop> <stop offset="0.46" style="stop-color:#F38D30"></stop> <stop offset="0.64" style="stop-color:#F6A132"></stop> <stop offset="0.82" style="stop-color:#F7AD33"></stop> <stop offset="1" style="stop-color:#F8B133"></stop> </linearGradient> <polygon class="st1" points="-5.2,16.4 25.4,-14.2 56,16.4 25.4,47 "></polygon> </g> </g> <g> <defs> <path id="SVGID_4_" d="M17.4,1C7.7,1,0,8.9,0,18.5c0,4.6,1.9,9,5.1,12.3L29.8,6.1C26.5,2.8,22.1,1,17.5,1H17.4z"></path> </defs> <clipPath id="SVGID_5_"> <use xlink:href="#SVGID_4_" style="overflow:visible;"></use> </clipPath> <g class="st2"> <linearGradient id="SVGID_6_" gradientUnits="userSpaceOnUse" x1="-423.1027" y1="113.446" x2="-422.1027" y2="113.446" gradientTransform="matrix(24.6639 -24.6639 24.6639 24.6639 7639.3491 -13205.4863)"> <stop offset="0" style="stop-color:#CD2073"></stop> <stop offset="0.17" style="stop-color:#C82074"></stop> <stop offset="0.38" style="stop-color:#B82176"></stop> <stop offset="0.62" style="stop-color:#9F237A"></stop> <stop offset="0.86" style="stop-color:#7C2580"></stop> <stop offset="1" style="stop-color:#662683"></stop> </linearGradient> <polygon class="st3" points="-16.6,15.9 14,-14.8 44.7,15.9 14,46.5 "></polygon> </g> </g> <g> <defs> <path id="SVGID_7_" d="M9.7,6.1c-5.6,5.5-5.6,14.5,0,20.1c0,0,0,0,0,0L29.8,6.1C24.2,0.6,15.2,0.6,9.7,6.1"></path> </defs> <clipPath id="SVGID_8_"> <use xlink:href="#SVGID_7_" style="overflow:visible;"></use> </clipPath> <g class="st4"> <linearGradient id="SVGID_9_" gradientUnits="userSpaceOnUse" x1="-410.0564" y1="112.4266" x2="-409.0564" y2="112.4266" gradientTransform="matrix(24.27 0 0 24.27 9956.8896 -2714.5278)"> <stop offset="0" style="stop-color:#A11A5C"></stop> <stop offset="0.33" style="stop-color:#6F1F5C"></stop> <stop offset="0.62" style="stop-color:#4A225D"></stop> <stop offset="0.85" style="stop-color:#33245D"></stop> <stop offset="1" style="stop-color:#2B255D"></stop> </linearGradient> <rect x="4.1" y="1.9" class="st5" width="25.7" height="24.3"></rect> </g> </g> <g> <defs> <path id="SVGID_10_" d="M14.2,21.6c5.6,5.6,14.5,5.6,20.1,0s5.6-14.5,0-20.1L14.2,21.6z"></path> </defs> <clipPath id="SVGID_11_"> <use xlink:href="#SVGID_10_" style="overflow:visible;"></use> </clipPath> <g class="st6"> <linearGradient id="SVGID_12_" gradientUnits="userSpaceOnUse" x1="-422.8446" y1="116.1132" x2="-421.8446" y2="116.1132" gradientTransform="matrix(20.103 -20.103 20.103 20.103 6183.1851 -10810.2256)"> <stop offset="0" style="stop-color:#E31018"></stop> <stop offset="0.24" style="stop-color:#E41917"></stop> <stop offset="0.65" style="stop-color:#E63316"></stop> <stop offset="1" style="stop-color:#E84E14"></stop> </linearGradient> <polygon class="st7" points="1.4,14.4 27.1,-11.3 52.7,14.4 27.1,40 "></polygon> </g> </g> <g> <defs> <rect id="SVGID_13_" y="1" width="105.2" height="30.3"></rect> </defs> <clipPath id="SVGID_14_"> <use xlink:href="#SVGID_13_" style="overflow:visible;"></use> </clipPath> <g class="st8"> <path class="st9" d="M68.8,8.5c0,1.4,1.1,2.4,2.5,2.4c1.4,0,2.4-1.1,2.4-2.5c0-1.3-1.1-2.4-2.4-2.4C69.9,6,68.8,7.1,68.8,8.5"></path> <rect x="69.3" y="12.5" class="st9" width="3.9" height="13.8"></rect> <path class="st9" d="M85.2,8.5c0,1.4,1.1,2.4,2.5,2.4c1.4,0,2.4-1.1,2.4-2.5C90.1,7.1,89,6,87.6,6C86.3,6,85.2,7.1,85.2,8.5"></path> <rect x="85.7" y="12.5" class="st9" width="3.9" height="13.8"></rect> <path class="st9" d="M67.4,23.2c-0.3,0.1-0.6,0.2-0.9,0.2c-0.5,0-0.7-0.2-0.7-0.9v-5.1c0-3.3-1.6-5.3-4.7-5.3 c-1.7,0-3.4,0.9-4.2,2.4c-0.7-1.6-2.4-2.6-4.2-2.4c-1.5,0-3,0.7-3.8,2v-1.6L44.9,14l0,0v12.2h3.9v-9.3c0.6-0.8,1.6-1.4,2.7-1.4 c1.6,0,2.2,0.8,2.2,2.9v7.8h3.7v-8.8c0-0.2,0-0.4,0-0.6c0.6-0.8,1.5-1.2,2.5-1.3c1.6,0,2.2,0.8,2.2,2.9V23c0,2.3,0.8,3.5,3.1,3.5 c1.1,0,2.2-0.4,3.1-1L67.4,23.2z"></path> <path class="st9" d="M83.6,22.9c-0.8,0.4-1.6,0.6-2.5,0.6c-1.5,0-2.2-0.9-2.2-2.4v-5.3h4.9v-3.3h-4.9V8.3L75,9.9v11.7 c0,3.6,1.9,4.8,5.1,4.8c1.5,0,3-0.4,4.3-1.1L83.6,22.9z"></path> <path class="st9" d="M103.3,22.4c-1.3,0.8-2.8,1.3-4.4,1.2c-2.1,0.2-3.9-1.3-4.1-3.3h10.1c0.2-0.7,0.3-1.4,0.3-2.1 c0-3.4-2.8-6.2-6.3-6.2c-0.1,0-0.2,0-0.4,0c-5.1,0-7.4,3.3-7.4,7.3s2.4,7.2,7.5,7.2c2,0,4-0.6,5.6-1.8L103.3,22.4z M98.5,15.1 c1.6-0.2,3,0.9,3.2,2.5c0,0.2,0,0.3,0,0.5h-6.9C95,16.2,96.6,14.9,98.5,15.1"></path> </g> </g> </svg> 